<svg xmlns="http://www.w3.org/2000/svg" fill="none" viewBox="0 0 104 62" height="62" width="104">
<path fill="#00A0E9" d="M-0.00195312 11.3508C-0.00195312 5.19276 4.99012 0.200684 11.1482 0.200684H44.433C50.591 0.200684 55.5831 5.19276 55.5831 11.3508V19.7874H51.123V11.3508C51.123 7.65597 48.1278 4.66073 44.433 4.66073H11.1482C7.45333 4.66073 4.45809 7.65597 4.45809 11.3508V50.6169C4.45809 54.3118 7.45333 57.307 11.1481 57.307H44.433C47.6331 57.307 50.3085 55.0601 50.9675 52.0578C51.6997 52.6015 52.6219 53.1264 53.789 53.5272C54.2428 53.683 54.6772 53.8076 55.0897 53.9069C53.686 58.459 49.4458 61.7671 44.433 61.7671H11.1481C4.99011 61.7671 -0.00195312 56.775 -0.00195312 50.6169V11.3508Z" clip-rule="evenodd" fill-rule="evenodd"></path>
<path fill="black" d="M54.9269 23.9067C55.1686 23.9067 55.3646 24.1027 55.3646 24.3445L55.3645 29.0492L60.5065 29.0492C60.7482 29.0492 60.9442 29.2452 60.9442 29.487V32.9888C60.9442 33.2306 60.7482 33.4265 60.5065 33.4265L55.3645 33.4264L55.3646 43.2353C55.3646 44.3957 56.2677 45.3452 57.4094 45.4193L57.5533 45.4239H60.5065C60.7482 45.4239 60.9442 45.6199 60.9442 45.8616V49.3635C60.9442 49.6053 60.7482 49.8012 60.5065 49.8012H57.5533C53.9981 49.8012 51.1029 46.9757 50.9907 43.4478L50.9873 43.2353V24.3445C50.9873 24.1027 51.1833 23.9067 51.425 23.9067H54.9269Z"></path>
<path fill="black" d="M21.1829 15.25V41.4847C21.1829 43.1312 22.4816 44.4744 24.1106 44.5458L24.2471 44.5488H31.3314C32.9779 44.5488 34.3211 43.2501 34.3925 41.6211L34.3955 41.4847V15.25H40.5237V41.4847C40.5237 46.4947 36.5158 50.5686 31.5312 50.6749L31.3314 50.677H24.2471C19.2371 50.677 15.1632 46.6691 15.0568 41.6845L15.0547 41.4847V15.25H21.1829Z"></path>
<path fill="black" d="M92.3148 29.0493C88.7596 29.0493 85.8643 31.8749 85.7522 35.4028L85.7488 35.6153V43.2354C85.7488 46.7905 88.5743 49.6858 92.1023 49.798L92.3148 49.8013H96.5082C100.063 49.8013 102.959 46.9758 103.071 43.4479L103.074 43.2354V42.6198C103.074 42.378 102.878 42.182 102.636 42.182H99.1346C98.8929 42.182 98.6969 42.378 98.6969 42.6198V43.2354C98.6969 44.3958 97.7938 45.3453 96.6521 45.4194L96.5082 45.424H92.3148C91.1544 45.424 90.2049 44.5209 90.1308 43.3793L90.1261 43.2354V35.6153C90.1261 34.4549 91.0292 33.5054 92.1709 33.4313L92.3148 33.4266H96.5082C97.6686 33.4266 98.6181 34.3297 98.6922 35.4714L98.6969 35.6153V36.6781C98.6969 36.9199 98.8929 37.1159 99.1346 37.1159H102.636C102.878 37.1159 103.074 36.9199 103.074 36.6781V35.6153C103.074 32.0601 100.249 29.1649 96.7207 29.0527L96.5082 29.0493H92.3148Z"></path>
<path fill="black" d="M69.3021 43.2354L69.3068 43.3793C69.3809 44.5209 70.3304 45.424 71.4908 45.424H76.2969L76.4262 45.4188C77.1224 45.3623 77.6906 44.8533 77.8365 44.1863C77.8459 44.1434 77.8459 43.848 78.2816 43.848L81.9019 43.8482L81.9126 43.8487C82.1046 43.8604 82.2507 44.0256 82.239 44.2177L82.2262 44.387C81.9538 47.4223 79.4032 49.8013 76.2969 49.8013H71.4908L71.2783 49.798C67.7503 49.6858 64.9248 46.7905 64.9248 43.2354V35.6153L64.9282 35.4028C65.0404 31.8749 67.9356 29.0493 71.4908 29.0493H75.9749L76.1863 29.0528C79.5542 29.1643 82.2502 31.9296 82.2502 35.3247V38.9736L82.2458 39.1279C82.1659 40.5066 81.0226 41.6 79.6238 41.6L70.8949 41.5999V37.222L77.8731 37.2227L77.8729 35.3247L77.8681 35.1891C77.7986 34.2041 76.9776 33.4266 75.9749 33.4266H71.4908L71.3469 33.4313C70.2052 33.5054 69.3021 34.4549 69.3021 35.6153V43.2354Z"></path>
</svg>
